<?xml version="1.0" encoding="UTF-8"?>
<svg width="1200" height="630" viewBox="0 0 1200 630" fill="none" xmlns="http://www.w3.org/2000/svg">
  <rect width="1200" height="630" fill="#F3F4F6"/>
  <path d="M0 0H1200V630H0V0Z" fill="#E5E7EB"/>
  <path d="M400 200H800V400H400V200Z" fill="#9CA3AF"/>
  <path d="M450 250H750V350H450V250Z" fill="#6B7280"/>
  <path d="M500 150L550 200H450L500 150Z" fill="#4B5563"/>
  <path d="M700 150L750 200H650L700 150Z" fill="#4B5563"/>
  <path d="M550 200V250H450V200H550Z" fill="#4B5563"/>
  <path d="M700 200V250H600V200H700Z" fill="#4B5563"/>
  <circle cx="550" cy="280" r="20" fill="#4B5563"/>
  <circle cx="650" cy="280" r="20" fill="#4B5563"/>
  <path d="M550 320C550 320 575 350 600 350C625 350 650 320 650 320" stroke="#4B5563" stroke-width="4" stroke-linecap="round"/>
  <text x="600" y="500" font-family="Arial" font-size="24" text-anchor="middle" fill="#6B7280">Salud Mental y Bienestar</text>
</svg>
